<?xml version="1.0" encoding="utf-8"?>
<!-- Generator: Adobe Illustrator 21.0.2, SVG Export Plug-In . SVG Version: 6.00 Build 0)  -->
<svg version="1.1" id="Layer_1" xmlns="http://www.w3.org/2000/svg" xmlns:xlink="http://www.w3.org/1999/xlink" x="0px" y="0px"
	 viewBox="80 55 270 100" style="enable-background:new 0 0 427.8 212;" xml:space="preserve">
<style type="text/css">
	.st0{clip-path:url(#SVGID_2_);}
	.st1{fill:#FFFFFF;}
	.st2{fill:#EC5F70;}
	.st3{enable-background:new    ;}
	.st4{fill:#0A1BF5;}
	.st5{fill:#3631F4;}
	.st6{fill:#5DE171;}
	.st7{fill:#090A6C;}
	.st8{fill:#231F20;}
</style>
<g>
	<polygon class="st5" points="146,75.4 146.1,75.4 145.9,61 128,56.9 82.1,89.1 82.6,132.6 100.4,136.6 100.1,107.5 100.2,107.4 	
		"/>
	<polygon class="st6" points="163.8,79.4 146.1,75.4 146.2,91.7 146.4,104.5 118.1,124.3 100.5,136.7 100.4,136.6 100.5,151 
		118.4,155.1 164.3,122.9 	"/>
	<polygon class="st2" points="100.1,107.5 100.2,107.5 100.2,107.4 	"/>
</g>
<g>
	<path d="M199.8,118.9l0-6.5l10.2,0L209.8,82l-10.2,0l0-6.5l27.2-0.1l0,6.5l-10.2,0l0.1,30.4l10.2,0l0,6.5L199.8,118.9z"/>
	<path d="M268.1,105.1c-0.4,4.3-2,7.8-4.7,10.4c-2.7,2.7-6.2,4-10.4,4c-4.9,0-8.9-1.8-11.9-5.5c-3-3.8-4.5-9.4-4.5-17
		c0-7.6,1.4-13.3,4.4-17c3-3.8,7-5.7,11.9-5.7c4.2,0,7.7,1.3,10.4,4c2.7,2.7,4.4,6.1,4.8,10.3l-6.2,1.1c-0.7-6-3.7-9-9-8.9
		c-3.3,0-5.7,1.2-7.2,3.6s-2.3,6.6-2.2,12.5c0,5.9,0.8,10.1,2.4,12.5c1.6,2.4,4,3.6,7.3,3.6c5.6,0,8.4-3.6,8.9-9L268.1,105.1z"/>
	<path d="M280.4,102.5c0.3,1.9,0.4,3,1.3,5.2c1.3,3,3.9,5,9.2,5.2c5.1,0,8.7-2.3,8.7-6.9c0-4-2.5-6.1-9-7.8
		c-4.6-1.2-8.1-2.7-10.6-4.5c-2.4-1.8-3.6-4.5-3.6-8.1c0-3.2,1.2-5.8,3.6-8.1c2.5-2.3,5.9-3.4,10.2-3.5c7.5,0,13,4.1,14.9,11.3
		l-6.3,1.3c-1.3-4.1-4.1-6.2-8.5-6.2c-4.5,0-7.2,2.3-7.2,5c0.3,2.2,1.3,3.3,3.9,4.5c0.9,0.4,1.7,0.7,2.4,0.9c0.7,0.2,1.7,0.5,3,0.9
		l2.7,0.9c0.6,0.2,1.4,0.5,2.7,1c2.5,1,3.2,1.6,4.9,3.1c2.5,2,3.4,4.8,3.6,9.1c0,4-1.4,7.2-4.2,9.7c-2.8,2.4-6.6,3.7-11.3,3.7
		c-6.1,0-10.7-2.2-13.2-5.5c-2.3-3.4-3.5-6.6-3.8-10.3L280.4,102.5z"/>
	<path d="M325.3,118.3l-0.2-36.9l-13.3,0.1l0-6.5l33.4-0.2l0,6.5L332,81.4l0.2,36.9L325.3,118.3z"/>
</g>
<g>
	<path d="M199.5,154v-3.2c0-1.8,0.4-3.2,1.2-4.1s2.3-1.7,4.4-2.4c1.1-0.4,1.8-0.7,2.6-1.2c0.8-0.5,1.2-1.2,1.2-2.2
		c0-1.7-1-2.9-3.2-2.9c-2.1,0-3.3,1.2-3.6,3.5l-2.7-0.5c0.2-1.7,0.9-3.1,2-4.2c1.2-1.1,2.6-1.6,4.3-1.6s3.2,0.5,4.3,1.5
		c1.2,1,1.7,2.4,1.7,4.1c0,1.7-0.6,3-1.8,3.9c-1.1,0.8-2.1,1.3-3.7,1.8c-1.8,0.6-3,1.1-3.4,1.6c-0.4,0.5-0.6,1.5-0.6,3h9.4v2.7
		H199.5z"/>
	<path d="M216.6,152c-1.2-1.6-1.9-4-1.9-7.2s0.6-5.6,1.9-7.1c1.3-1.6,2.9-2.4,5-2.4c4.2,0,6.9,3.1,6.9,9.5s-2.7,9.5-6.9,9.5
		C219.6,154.4,217.9,153.6,216.6,152z M223.4,138.5c-0.5-0.2-1.1-0.4-1.8-0.4c-1.4,0-2.4,0.5-3,1.5c-0.6,1-1,2.8-1,5.3
		c0,2.2,0.3,3.9,0.8,4.9L223.4,138.5z M219.8,151.3c0.5,0.2,1.1,0.3,1.8,0.3c1.4,0,2.4-0.5,3.1-1.5c0.6-1,1-2.8,1-5.3
		c0-2.3-0.3-3.9-0.8-5L219.8,151.3z"/>
	<path d="M231.7,154v-3.2c0-1.8,0.4-3.2,1.2-4.1s2.3-1.7,4.4-2.4c1.1-0.4,1.8-0.7,2.6-1.2c0.8-0.5,1.2-1.2,1.2-2.2
		c0-1.7-1-2.9-3.2-2.9c-2.1,0-3.3,1.2-3.6,3.5l-2.7-0.5c0.2-1.7,0.9-3.1,2-4.2c1.2-1.1,2.6-1.6,4.3-1.6s3.2,0.5,4.3,1.5
		c1.2,1,1.7,2.4,1.7,4.1c0,1.7-0.6,3-1.8,3.9c-1.1,0.8-2.1,1.3-3.7,1.8c-1.8,0.6-3,1.1-3.4,1.6c-0.4,0.5-0.6,1.5-0.6,3h9.4v2.7
		H231.7z"/>
	<path d="M248.9,152c-1.2-1.6-1.9-4-1.9-7.2s0.6-5.6,1.9-7.1c1.3-1.6,2.9-2.4,5-2.4c4.2,0,6.9,3.1,6.9,9.5s-2.7,9.5-6.9,9.5
		C251.8,154.4,250.1,153.6,248.9,152z M255.7,138.5c-0.5-0.2-1.1-0.4-1.8-0.4c-1.4,0-2.4,0.5-3,1.5c-0.6,1-1,2.8-1,5.3
		c0,2.2,0.3,3.9,0.8,4.9L255.7,138.5z M252.1,151.3c0.5,0.2,1.1,0.3,1.8,0.3c1.4,0,2.4-0.5,3.1-1.5c0.6-1,1-2.8,1-5.3
		c0-2.3-0.3-3.9-0.8-5L252.1,151.3z"/>
</g>
</svg>
